<?xml version="1.0" encoding="utf-8"?>
<!-- Generator: Adobe Illustrator 23.0.1, SVG Export Plug-In . SVG Version: 6.00 Build 0)  -->
<svg version="1.1" id="Layer_1" xmlns="http://www.w3.org/2000/svg" xmlns:xlink="http://www.w3.org/1999/xlink" x="0px" y="0px"
	 viewBox="0 0 187.7 43" style="enable-background:new 0 0 187.7 43;" xml:space="preserve">
<style type="text/css">
	.st0{fill:#ABC1DD;}
	.st1{fill:#557EBF;}
	.st2{fill-rule:evenodd;clip-rule:evenodd;fill:#557EBF;}
	.st3{fill:none;}
	.st4{fill-rule:evenodd;clip-rule:evenodd;fill:#FFFFFF;}
	.st5{fill-rule:evenodd;clip-rule:evenodd;fill:#36A852;}
	.st6{fill-rule:evenodd;clip-rule:evenodd;fill:#F9BC15;}
	.st7{fill-rule:evenodd;clip-rule:evenodd;fill:#EA4535;}
	.st8{fill:#FFFFFF;}
</style>
<g>
	<path class="st0" d="M186.1,43H1.5C0.7,43,0,42.2,0,41.3V1.6C0,0.8,0.7,0,1.5,0h184.6c0.8,0,1.5,0.8,1.5,1.6v39.8
		C187.7,42.3,186.9,43,186.1,43z"/>
	<path class="st1" d="M184.7,41.5H3c-0.8,0-1.5-0.7-1.5-1.5V3c0-0.8,0.7-1.5,1.5-1.5h181.7c0.8,0,1.5,0.7,1.5,1.5v37.1
		C186.2,40.9,185.5,41.5,184.7,41.5z"/>
	<g id="Google-Button">
		<g transform="translate(-608.000000, -219.000000)">
		</g>
		<g id="btn_google_dark_normal" transform="translate(-1.000000, -1.000000)">
			<g id="button" transform="translate(4.000000, 4.000000)">
				<g id="button-bg">
					<g>
						<path id="path-2" class="st2" d="M0.4-1.5h36c1.1,0,2,0.9,2,2v36c0,1.1-0.9,2-2,2h-36c-1.1,0-2-0.9-2-2v-36
							C-1.6-0.6-0.7-1.5,0.4-1.5z"/>
					</g>
					<g>
						<path class="st3" d="M0.4-1.5h36c1.1,0,2,0.9,2,2v36c0,1.1-0.9,2-2,2h-36c-1.1,0-2-0.9-2-2v-36C-1.6-0.6-0.7-1.5,0.4-1.5z"/>
					</g>
					<g>
						<path class="st3" d="M0.4-1.5h36c1.1,0,2,0.9,2,2v36c0,1.1-0.9,2-2,2h-36c-1.1,0-2-0.9-2-2v-36C-1.6-0.6-0.7-1.5,0.4-1.5z"/>
					</g>
					<g>
						<path class="st3" d="M0.4-1.5h36c1.1,0,2,0.9,2,2v36c0,1.1-0.9,2-2,2h-36c-1.1,0-2-0.9-2-2v-36C-1.6-0.6-0.7-1.5,0.4-1.5z"/>
					</g>
				</g>
			</g>
			<g id="button-bg-copy">
				<g>
					<path id="path-3" class="st4" d="M4.4,3.5h36c0.6,0,1,0.4,1,1v36c0,0.6-0.4,1-1,1h-36c-0.6,0-1-0.4-1-1v-36
						C3.4,3.9,3.8,3.5,4.4,3.5z"/>
				</g>
				<g>
					<path class="st3" d="M4.4,3.5h36c0.6,0,1,0.4,1,1v36c0,0.6-0.4,1-1,1h-36c-0.6,0-1-0.4-1-1v-36C3.4,3.9,3.8,3.5,4.4,3.5z"/>
				</g>
				<g>
					<path class="st3" d="M4.4,3.5h36c0.6,0,1,0.4,1,1v36c0,0.6-0.4,1-1,1h-36c-0.6,0-1-0.4-1-1v-36C3.4,3.9,3.8,3.5,4.4,3.5z"/>
				</g>
				<g>
					<path class="st3" d="M4.4,3.5h36c0.6,0,1,0.4,1,1v36c0,0.6-0.4,1-1,1h-36c-0.6,0-1-0.4-1-1v-36C3.4,3.9,3.8,3.5,4.4,3.5z"/>
				</g>
			</g>
			<g id="logo_googleg_48dp" transform="translate(15.000000, 15.000000)">
				<path id="Shape" class="st2" d="M16,7.7c0-0.6-0.1-1.3-0.2-1.8H7.4v3.5h4.8c-0.2,1.1-0.8,2-1.8,2.7v2.3h3
					C15.1,12.8,16,10.4,16,7.7L16,7.7z"/>
				<path class="st5" d="M7.4,16.5c2.4,0,4.5-0.8,6-2.2l-3-2.2c-0.8,0.5-1.8,0.9-3,0.9c-2.3,0-4.3-1.6-5-3.7h-3v2.2
					C0.8,14.5,3.9,16.5,7.4,16.5L7.4,16.5z"/>
				<path class="st6" d="M2.4,9.2C2.2,8.7,2.1,8.1,2.1,7.5s0.1-1.2,0.3-1.7V3.5h-3c-0.7,1.2-1,2.5-1,4s0.3,2.8,1,4L2.4,9.2L2.4,9.2z
					"/>
				<path class="st7" d="M7.4,2.1c1.3,0,2.5,0.5,3.4,1.3l2.6-2.6c-1.5-1.4-3.6-2.3-6-2.3c-3.5,0-6.6,2-8,5l3,2.3
					C3.1,3.7,5.1,2.1,7.4,2.1L7.4,2.1z"/>
				<path class="st3" d="M-1.6-1.5h18v18h-18V-1.5z"/>
			</g>
			<g id="handles_square">
			</g>
		</g>
	</g>
	<g>
		<path class="st8" d="M57.6,23.3c0-0.4-0.2-0.8-0.5-1s-0.9-0.5-1.7-0.7s-1.4-0.5-1.9-0.8c-0.9-0.6-1.4-1.3-1.4-2.2
			c0-0.8,0.3-1.5,1-2s1.5-0.8,2.5-0.8c0.7,0,1.3,0.1,1.9,0.4s1,0.6,1.3,1.1s0.5,1,0.5,1.6h-1.7c0-0.5-0.2-0.9-0.5-1.2
			c-0.3-0.3-0.8-0.4-1.4-0.4c-0.6,0-1,0.1-1.3,0.4c-0.3,0.2-0.5,0.6-0.5,1s0.2,0.7,0.5,0.9s0.9,0.5,1.7,0.7s1.4,0.5,1.9,0.8
			s0.8,0.6,1,1s0.3,0.8,0.3,1.3c0,0.8-0.3,1.5-1,2c-0.6,0.5-1.5,0.7-2.6,0.7c-0.7,0-1.4-0.1-2-0.4s-1.1-0.6-1.4-1.1
			c-0.3-0.5-0.5-1-0.5-1.6h1.7c0,0.6,0.2,1,0.6,1.3c0.4,0.3,0.9,0.5,1.6,0.5c0.6,0,1.1-0.1,1.4-0.4C57.4,24,57.6,23.7,57.6,23.3z"/>
		<path class="st8" d="M60.7,16.5c0-0.3,0.1-0.5,0.2-0.6c0.2-0.2,0.4-0.3,0.7-0.3s0.5,0.1,0.7,0.3c0.2,0.2,0.2,0.4,0.2,0.6
			c0,0.3-0.1,0.5-0.2,0.6s-0.4,0.2-0.7,0.2s-0.5-0.1-0.7-0.2C60.8,17,60.7,16.8,60.7,16.5z M62.4,25.9h-1.7v-7.4h1.7V25.9z"/>
		<path class="st8" d="M64,22.1c0-1.1,0.3-2.1,0.8-2.8c0.5-0.7,1.3-1,2.1-1c0.8,0,1.5,0.3,2,0.9l0.1-0.7h1.5v7.2
			c0,1-0.3,1.7-0.9,2.3c-0.6,0.6-1.4,0.8-2.4,0.8c-0.5,0-1.1-0.1-1.6-0.3c-0.5-0.2-0.9-0.5-1.2-0.9l0.8-1c0.5,0.6,1.1,0.9,1.9,0.9
			c0.6,0,1-0.1,1.3-0.4s0.5-0.7,0.5-1.3v-0.5c-0.5,0.5-1.1,0.8-1.9,0.8c-0.9,0-1.6-0.3-2.1-1C64.2,24.3,64,23.3,64,22.1z M65.6,22.2
			c0,0.7,0.2,1.3,0.5,1.8c0.3,0.4,0.7,0.6,1.3,0.6c0.7,0,1.2-0.3,1.5-0.9v-3.2c-0.3-0.6-0.8-0.8-1.5-0.8c-0.5,0-1,0.2-1.3,0.6
			C65.8,20.8,65.6,21.4,65.6,22.2z"/>
		<path class="st8" d="M73.7,18.5v0.9c0.5-0.7,1.3-1,2.2-1c1.5,0,2.3,0.9,2.4,2.6v4.9h-1.7v-4.8c0-0.5-0.1-0.8-0.3-1
			c-0.2-0.2-0.5-0.3-1-0.3c-0.7,0-1.2,0.3-1.5,0.9V26h-1.7v-7.5H73.7z"/>
		<path class="st8" d="M83.5,16.5c0-0.3,0.1-0.5,0.2-0.6c0.2-0.2,0.4-0.3,0.7-0.3s0.5,0.1,0.7,0.3s0.2,0.4,0.2,0.6
			c0,0.3-0.1,0.5-0.2,0.6s-0.4,0.2-0.7,0.2s-0.5-0.1-0.7-0.2S83.5,16.8,83.5,16.5z M85.2,25.9h-1.7v-7.4h1.7V25.9z"/>
		<path class="st8" d="M88.6,18.5v0.9c0.5-0.7,1.3-1,2.2-1c1.5,0,2.3,0.9,2.4,2.6v4.9h-1.7v-4.8c0-0.5-0.1-0.8-0.3-1
			c-0.2-0.2-0.5-0.3-1-0.3c-0.7,0-1.2,0.3-1.5,0.9V26H87v-7.5H88.6z"/>
		<path class="st8" d="M104.8,23.6l1.2-5.1h1.6l-2,7.4h-1.4l-1.6-5.1l-1.6,5.1h-1.4l-2-7.4h1.6l1.2,5.1l1.5-5.1h1.3L104.8,23.6z"/>
		<path class="st8" d="M108.7,16.5c0-0.3,0.1-0.5,0.2-0.6c0.2-0.2,0.4-0.3,0.7-0.3s0.5,0.1,0.7,0.3s0.2,0.4,0.2,0.6
			c0,0.3-0.1,0.5-0.2,0.6s-0.4,0.2-0.7,0.2s-0.5-0.1-0.7-0.2C108.8,17,108.7,16.8,108.7,16.5z M110.5,25.9h-1.7v-7.4h1.7V25.9z"/>
		<path class="st8" d="M114.4,16.7v1.8h1.3v1.2h-1.3v4.1c0,0.3,0.1,0.5,0.2,0.6s0.3,0.2,0.6,0.2c0.2,0,0.4,0,0.6-0.1v1.3
			c-0.4,0.1-0.7,0.2-1.1,0.2c-1.3,0-1.9-0.7-1.9-2.1v-4.2h-1.2v-1.2h1.2v-1.8H114.4z"/>
		<path class="st8" d="M118.6,19.3c0.5-0.6,1.2-0.9,2.1-0.9c1.6,0,2.4,0.9,2.4,2.7v4.8h-1.7v-4.8c0-0.5-0.1-0.9-0.3-1.1
			c-0.2-0.2-0.5-0.3-1-0.3c-0.7,0-1.2,0.3-1.5,0.9v5.3h-1.7V15.4h1.7V19.3z"/>
		<path class="st8" d="M136,24.6c-0.4,0.5-0.9,0.8-1.5,1.1c-0.6,0.2-1.4,0.4-2.2,0.4s-1.6-0.2-2.2-0.6c-0.6-0.4-1.1-0.9-1.5-1.6
			c-0.3-0.7-0.5-1.5-0.5-2.5v-0.8c0-1.5,0.4-2.7,1.1-3.5s1.7-1.3,3-1.3c1.1,0,2,0.3,2.6,0.8s1,1.3,1.2,2.4h-1.7
			c-0.2-1.2-0.9-1.8-2.1-1.8c-0.8,0-1.4,0.3-1.8,0.8c-0.4,0.6-0.6,1.4-0.6,2.5v0.8c0,1.1,0.2,1.9,0.7,2.5s1.1,0.9,1.9,0.9
			c0.9,0,1.5-0.2,1.9-0.6v-1.9h-2.1v-1.3h3.8L136,24.6L136,24.6z"/>
		<path class="st8" d="M137.4,22.1c0-0.7,0.1-1.4,0.4-2s0.7-1,1.2-1.3s1.1-0.5,1.8-0.5c1,0,1.8,0.3,2.4,1c0.6,0.6,1,1.5,1,2.6v0.4
			c0,0.7-0.1,1.4-0.4,2c-0.3,0.6-0.7,1-1.2,1.3s-1.1,0.5-1.8,0.5c-1,0-1.9-0.3-2.5-1C137.7,24.3,137.4,23.3,137.4,22.1L137.4,22.1z
			 M139.1,22.2c0,0.8,0.2,1.4,0.5,1.8s0.8,0.6,1.3,0.6s1-0.2,1.3-0.7c0.3-0.4,0.5-1.1,0.5-1.9c0-0.7-0.2-1.3-0.5-1.8
			c-0.3-0.4-0.8-0.7-1.3-0.7s-1,0.2-1.3,0.6S139.1,21.4,139.1,22.2z"/>
		<path class="st8" d="M145.4,22.1c0-0.7,0.1-1.4,0.4-2s0.7-1,1.2-1.3s1.1-0.5,1.8-0.5c1,0,1.8,0.3,2.4,1c0.6,0.6,1,1.5,1,2.6v0.4
			c0,0.7-0.1,1.4-0.4,2c-0.3,0.6-0.7,1-1.2,1.3s-1.1,0.5-1.8,0.5c-1,0-1.9-0.3-2.5-1C145.7,24.3,145.4,23.3,145.4,22.1L145.4,22.1z
			 M147,22.2c0,0.8,0.2,1.4,0.5,1.8s0.8,0.6,1.3,0.6s1-0.2,1.3-0.7c0.3-0.4,0.5-1.1,0.5-1.9c0-0.7-0.2-1.3-0.5-1.8
			c-0.3-0.4-0.8-0.7-1.3-0.7s-1,0.2-1.3,0.6S147,21.4,147,22.2z"/>
		<path class="st8" d="M153.4,22.1c0-1.1,0.3-2.1,0.8-2.8c0.5-0.7,1.3-1,2.1-1s1.5,0.3,2,0.9l0.1-0.7h1.5v7.2c0,1-0.3,1.7-0.9,2.3
			c-0.6,0.6-1.4,0.8-2.4,0.8c-0.5,0-1.1-0.1-1.6-0.3c-0.5-0.2-0.9-0.5-1.2-0.9l0.8-1c0.5,0.6,1.1,0.9,1.9,0.9c0.6,0,1-0.1,1.3-0.4
			s0.5-0.7,0.5-1.3v-0.5c-0.5,0.5-1.1,0.8-1.9,0.8c-0.9,0-1.6-0.3-2.1-1C153.7,24.3,153.4,23.3,153.4,22.1z M155,22.2
			c0,0.7,0.2,1.3,0.5,1.8c0.3,0.4,0.7,0.6,1.3,0.6c0.7,0,1.2-0.3,1.5-0.9v-3.2c-0.3-0.6-0.8-0.8-1.5-0.8c-0.5,0-1,0.2-1.3,0.6
			C155.2,20.8,155,21.4,155,22.2z"/>
		<path class="st8" d="M163.4,25.9h-1.7V15.4h1.7V25.9z"/>
		<path class="st8" d="M168.4,26c-1.1,0-1.9-0.3-2.6-1c-0.7-0.7-1-1.5-1-2.6v-0.2c0-0.7,0.1-1.4,0.4-2c0.3-0.6,0.7-1,1.2-1.4
			s1.1-0.5,1.7-0.5c1,0,1.8,0.3,2.3,1c0.5,0.6,0.8,1.6,0.8,2.7v0.7h-4.8c0,0.6,0.3,1.1,0.6,1.4c0.4,0.4,0.8,0.5,1.4,0.5
			c0.8,0,1.4-0.3,1.9-0.9l0.9,0.9c-0.3,0.4-0.7,0.8-1.2,1C169.6,25.9,169.1,26,168.4,26z M168.2,19.7c-0.5,0-0.8,0.2-1.1,0.5
			s-0.5,0.8-0.5,1.3h3.2v-0.1c0-0.6-0.2-1-0.4-1.3S168.7,19.7,168.2,19.7z"/>
	</g>
</g>
</svg>
